<?xml version="1.0" encoding="UTF-8" standalone="no"?>
<!-- Created with Inkscape (http://www.inkscape.org/) -->

<svg
   width="69.226646mm"
   height="69.329361mm"
   viewBox="0 0 69.226646 69.329361"
   version="1.1"
   id="svg45"
   inkscape:version="1.1.2 (0a00cf5339, 2022-02-04, custom)"
   sodipodi:docname="paw.svg"
   xmlns:inkscape="http://www.inkscape.org/namespaces/inkscape"
   xmlns:sodipodi="http://sodipodi.sourceforge.net/DTD/sodipodi-0.dtd"
   xmlns="http://www.w3.org/2000/svg"
   xmlns:svg="http://www.w3.org/2000/svg">
  <sodipodi:namedview
     id="namedview47"
     pagecolor="#ffffff"
     bordercolor="#666666"
     borderopacity="1.0"
     inkscape:pageshadow="2"
     inkscape:pageopacity="0.0"
     inkscape:pagecheckerboard="0"
     inkscape:document-units="mm"
     showgrid="false"
     fit-margin-top="0"
     fit-margin-left="0"
     fit-margin-right="0"
     fit-margin-bottom="0"
     inkscape:zoom="0.64052329"
     inkscape:cx="80.403009"
     inkscape:cy="320.83143"
     inkscape:window-width="1920"
     inkscape:window-height="997"
     inkscape:window-x="1920"
     inkscape:window-y="0"
     inkscape:window-maximized="1"
     inkscape:current-layer="layer1" />
  <defs
     id="defs42" />
  <g
     inkscape:label="Layer 1"
     inkscape:groupmode="layer"
     id="layer1"
     transform="translate(-83.681457,-63.516146)">
    <path
       class="st2"
       d="m 125.33032,108.34913 c -1.90014,1.18117 -4.62195,4.10841 -4.93008,5.80312 -0.20544,1.12982 -0.0514,2.25963 0.41082,3.23537 0.10268,0.15406 0.25678,0.35949 0.35949,0.56491 0.30813,0.51355 0.46221,1.12981 0.51355,1.79743 0.0514,0.41084 0.0514,0.87303 -0.0512,1.28388 -0.51356,2.77317 -3.13266,4.62195 -5.90583,4.1084 -2.77318,-0.51355 -4.62196,-3.13266 -4.10842,-5.90583 0.0514,-0.41084 0.20542,-0.82168 0.41085,-1.23252 0.25677,-0.56491 0.66762,-1.07846 1.07845,-1.4893 0.15411,-0.15406 0.30813,-0.30813 0.51356,-0.41084 0.77032,-0.71897 1.33522,-1.69472 1.54065,-2.82453 0.30813,-1.79743 -0.35948,-3.59486 -1.64337,-4.77602 -1.48929,-1.07846 -3.49215,-1.28388 -5.28957,-0.4622 -1.02711,0.51355 -1.84878,1.28388 -2.36233,2.20827 -0.10268,0.20542 -0.20543,0.41084 -0.30813,0.61626 -0.30813,0.5649 -0.71898,1.0271 -1.18116,1.43794 -0.30813,0.30813 -0.66762,0.56491 -1.07847,0.71897 -2.5164,1.23253 -5.546348,0.15406 -6.727512,-2.36233 -1.232522,-2.5164 -0.154114,-5.54635 2.362327,-6.72752 0.410848,-0.15405 0.821695,-0.30813 1.232525,-0.41084 0.61626,-0.10271 1.23252,-0.10271 1.84878,0 0.20543,0 0.41085,0.10272 0.61626,0.15406 1.07847,0.20542 2.15691,0.0514 3.23538,-0.41084 1.74607,-0.87304 2.82453,-2.56776 2.97859,-4.365184 -0.0514,-1.746072 -0.87303,-3.44079 -2.5164,-4.467892 -0.97575,-0.564907 -2.0542,-0.821681 -3.13267,-0.718972 -0.20541,0.05136 -0.46218,0.102717 -0.6676,0.102717 -0.61626,0.102716 -1.23252,0 -1.84878,-0.154056 -0.4622,-0.154055 -0.821693,-0.30813 -1.232521,-0.51355 -2.362347,-1.437944 -3.081305,-4.570603 -1.643369,-6.984292 1.437936,-2.362333 4.5706,-3.081303 6.98428,-1.643362 0.41085,0.256774 0.77034,0.513551 1.02711,0.821681 0.41085,0.462196 0.77032,0.975746 1.02711,1.540652 0.10268,0.20542 0.15411,0.410842 0.20541,0.667616 0.41085,0.975748 1.12981,1.900139 2.10556,2.465044 1.59201,0.975748 3.44079,0.975748 4.98145,0.256776 1.64336,-0.924392 2.72181,-2.72182 2.67045,-4.724668 -0.0514,-1.129811 -0.46218,-2.208268 -1.07844,-3.029949 -0.10268,-0.154055 -0.30813,-0.359485 -0.41085,-0.51355 -0.35949,-0.462196 -0.66762,-1.027102 -0.82168,-1.643363 -0.10267,-0.410841 -0.20543,-0.821681 -0.20543,-1.283877 -0.10268,-2.82453 2.15691,-5.186863 4.93009,-5.238218 2.82453,-0.102716 5.18688,2.156914 5.23822,4.930088 0,0.462196 -0.0514,0.873035 -0.15412,1.335231 -0.15411,0.564906 -0.41084,1.181167 -0.77033,1.694717 -0.10268,0.205422 -0.25677,0.359487 -0.41083,0.564907 -0.61626,0.924391 -0.97575,2.002848 -0.92439,3.132659 0.0514,1.951494 1.18116,3.646212 2.82453,4.519247 1.64335,0.564906 3.54349,0.359487 4.98143,-0.770326 0.92439,-0.71897 1.54065,-1.643362 1.84878,-2.670464 0.0514,-0.256776 0.10268,-0.462196 0.15411,-0.667615 0.20542,-0.616261 0.46219,-1.129814 0.87304,-1.643364 0.25677,-0.30813 0.5649,-0.667615 0.92439,-0.924391 2.20827,-1.694718 5.39229,-1.232522 7.087,0.975746 1.69473,2.20827 1.23252,5.392283 -0.97575,7.087001 -0.35949,0.256776 -0.77032,0.462196 -1.1298,0.667617 -0.61627,0.20542 -1.23253,0.359485 -1.79743,0.359485 -0.20543,0 -0.41085,0 -0.66762,-0.05136 -1.02711,0.05136 -2.10555,0.410839 -3.02995,1.078457 -1.64336,1.232522 -2.46504,5.649057 -2.15691,7.549202 0,0 0.71896,0.66761 1.07845,0.97574 l 0.97575,0.66762 c 0.30813,0.25677 0.66762,0.46219 0.97575,0.71897 l 1.90014,1.54065 c 0.10268,0.15408 0.30813,0.25678 0.46219,0.41084 l 0.4622,0.4622 0.87303,0.87303 0.9244,0.87304 0.82167,0.97575 c 0.5649,0.66761 1.18116,1.28388 1.69473,2.0542 1.1298,1.43794 2.15691,3.02995 2.97859,4.72467 0.35948,0.87303 0.77033,1.79743 1.0271,2.72182 0.25678,0.92439 0.51355,1.84878 0.61626,2.87588 0.0514,0.51355 0.10268,0.97575 0.10268,1.4893 0,0.15405 0,0.30813 0,0.46219 4.62196,-5.70041 6.88159,-13.91722 6.88159,-24.650436 0,-11.708959 -2.72182,-20.387967 -8.16545,-26.088381 -5.44365,-5.700414 -14.22536,-8.576297 -26.44788,-8.576297 -12.17115,0 -21.004213,2.875883 -26.447865,8.576297 -5.443632,5.700414 -8.165448,14.430779 -8.165448,26.088381 0,11.708956 2.721816,20.387966 8.165448,26.088386 5.443652,5.70041 14.276715,8.5763 26.447865,8.5763 5.23822,0 9.86017,-0.51355 13.86587,-1.59201 2.56776,-12.32522 -1.59199,-17.82022 -6.83021,-22.90437 z"
       id="path54"
       style="mix-blend-mode:multiply;fill:#f26430;stroke-width:0.51355" />
  </g>
</svg>
